<svg id="SvgjsSvg1001" width="288" height="288" xmlns="http://www.w3.org/2000/svg" version="1.1" xmlns:xlink="http://www.w3.org/1999/xlink" xmlns:svgjs="http://svgjs.com/svgjs"><g id="SvgjsG1011" fill="#87ddfd" transform="matrix(0.01,0,0,0.01,142.56,142.56)"><circle id="SvgjsCircle1012" r="144" cx="144" cy="144"></circle><rect id="SvgjsRect1013" width="144" height="144" x="144" y="144" rx="0" ry="0"></rect></g><defs id="SvgjsDefs1002"></defs><g id="SvgjsG1008" transform="matrix(0.69,0,0,0.69,44.640000000000015,46.11869777679445)"><svg xmlns="http://www.w3.org/2000/svg" viewBox="0 0 32 32" width="288" height="288"><path d="M6 7.031c-.309 0-.598.059-.875.145L8.039 9.03h15.922l2.914-1.855A2.933 2.933 0 0 0 26 7.03zm-1.887.688A2.978 2.978 0 0 0 3 10.03v13c0 1.653 1.348 3 3 3h20c1.652 0 3-1.347 3-3v-13c0-.933-.438-1.761-1.113-2.312L16 15.28zM6 12.445l10 6.367 10-6.367v11.586H6z" fill="#6666ff" class="color000 svgShape"></path></svg></g></svg>